HIERARCHY
ROOT Hips
{
  OFFSET 263.056 91.6644 -274.608
  CHANNELS 6 Xposition Yposition Zposition Zrotation Xrotation Yrotation
  JOINT LeftUpLeg
  {
    OFFSET 8.64259 1.95398 -2.38835
    CHANNELS 3 Zrotation Xrotation Yrotation
    JOINT LeftLeg
    {
      OFFSET 43.7702 0 0
      CHANNELS 3 Zrotation Xrotation Yrotation
      JOINT LeftFoot
      {
        OFFSET 40.6238 0 0
        CHANNELS 3 Zrotation Xrotation Yrotation
        JOINT LeftToeBase
        {
          OFFSET 12.7242 0 0
          CHANNELS 3 Zrotation Xrotation Yrotation
          End Site
          {
            OFFSET 0 0 0
          }
        }
      }
    }
  }
  JOINT RightUpLeg
  {
    OFFSET -8.2249 1.95398 -2.59336
    CHANNELS 3 Zrotation Xrotation Yrotation
    JOINT RightLeg
    {
      OFFSET 43.5653 0 0
      CHANNELS 3 Zrotation Xrotation Yrotation
      JOINT RightFoot
      {
        OFFSET 40.6238 0 0
        CHANNELS 3 Zrotation Xrotation Yrotation
        JOINT RightToeBase
        {
          OFFSET 12.7242 0 0
          CHANNELS 3 Zrotation Xrotation Yrotation
          End Site
          {
            OFFSET 0 0 0
          }
        }
      }
    }
  }
  JOINT Spine
  {
    OFFSET 0.165834 0.87714 6.61349
    CHANNELS 3 Zrotation Xrotation Yrotation
    JOINT Spine1
    {
      OFFSET 7.38963 1.71661e-005 0
      CHANNELS 3 Zrotation Xrotation Yrotation
      JOINT Spine2
      {
        OFFSET 11.9445 1.14441e-005 0
        CHANNELS 3 Zrotation Xrotation Yrotation
        JOINT Spine3
        {
          OFFSET 14.7254 4.19617e-005 0
          CHANNELS 3 Zrotation Xrotation Yrotation
          JOINT Spine4
          {
            OFFSET 10.9679 0 0
            CHANNELS 3 Zrotation Xrotation Yrotation
            JOINT RightShoulder
            {
              OFFSET 2.46616 -1.6653 3.69651
              CHANNELS 3 Zrotation Xrotation Yrotation
              JOINT RightArm
              {
                OFFSET 13.0012 0 0
                CHANNELS 3 Zrotation Xrotation Yrotation
                JOINT RightForeArm
                {
                  OFFSET 28.7848 1.52588e-005 0
                  CHANNELS 3 Zrotation Xrotation Yrotation
                  JOINT RightHand
                  {
                    OFFSET 26.5688 1.52588e-005 0
                    CHANNELS 3 Zrotation Xrotation Yrotation
                    End Site
                    {
                      OFFSET 0 0 0
                    }
                  }
                }
              }
            }
            JOINT LeftShoulder
            {
              OFFSET 2.38034 -1.29275 -3.7523
              CHANNELS 3 Zrotation Xrotation Yrotation
              JOINT LeftArm
              {
                OFFSET 16.3182 6.10352e-005 0
                CHANNELS 3 Zrotation Xrotation Yrotation
                JOINT LeftForeArm
                {
                  OFFSET 27.0901 0 0
                  CHANNELS 3 Zrotation Xrotation Yrotation
                  JOINT LeftHand
                  {
                    OFFSET 24.5451 1.52588e-005 0
                    CHANNELS 3 Zrotation Xrotation Yrotation
                    End Site
                    {
                      OFFSET 0 0 0
                    }
                  }
                }
              }
            }
            JOINT Neck
            {
              OFFSET 5.0226 -0.0266342 0
              CHANNELS 3 Zrotation Xrotation Yrotation
              JOINT Head
              {
                OFFSET 6.69364 2.86102e-005 0
                CHANNELS 3 Zrotation Xrotation Yrotation
                End Site
                {
                  OFFSET 0 0 0
                }
              }
            }
          }
        }
      }
    }
  }
}
MOTION
Frames:	15
Frame Time:	0.0416667
-292.155 78.2067 -285.141 91.6169 -44.8361 88.2825 -171.078 45.1602 85.7522 -69.5638 17.7509 -7.06551 82.6422 10.4822 8.69467 36.0908 8.21393 1.67101 178.919 54.1673 89.7962 -83.2628 -16.8929 -2.83732 91.1906 -15.1931 -4.48434 -116.214 -43.1195 4.26681 0.330572 8.0476 -89.3999 10.7729 0.935078 1.10683 -0.89813 0.982896 1.0646 -23.4307 0.559225 1.33666 -3.41804 0.559217 1.33664 82.1524 -48.5847 -113.221 24.8705 -9.50287 6.38675 -15.1398 -10.475 -58.7067 -12.288 -1.11553 5.61307 -99.4343 -45.3955 63.0908 -37.7735 7.28765 18.8351 2.88908 12.8831 -23.08 9.7933 0.966392 5.52354 8.26864 0.897869 3.6703 0.847576 0.0214881 -2.29319 
-289.931 79.624 -282.944 86.5175 -50.4926 82.9397 -168.707 43.4497 86.0436 -65.4456 16.4923 -10.5208 81.1048 13.7303 13.3825 34.5034 6.39805 -5.31466 -175.09 54.2864 88.4591 -84.2268 -17.5353 -4.20937 95.8814 -16.4882 -4.24904 -116.692 -50.7566 6.23228 0.908166 7.61702 -89.1096 11.6223 2.22388 1.54687 -0.0475493 2.2898 1.44748 -22.585 1.65627 2.14367 -2.57233 1.65625 2.14367 82.9302 -48.8736 -111.936 26.7796 -10.1388 8.31564 -13.5182 -10.8852 -56.6981 -12.5864 -1.06322 4.8418 -99.749 -44.7057 62.3374 -37.4944 7.22354 17.3363 2.74286 12.3072 -22.6499 7.75455 0.85387 6.23596 7.80494 0.65999 3.31245 0.21318 -0.107684 -2.24292 
-287.418 82.7529 -281.128 86.7424 -49.9392 82.9064 -169.474 37.5531 84.5439 -59.3909 13.4427 -8.80013 78.7782 12.8736 12.9384 33.7304 5.69964 -10.5927 -176.55 48.5429 88.4795 -83.7309 -18.8247 -4.8225 102.961 -18.7623 -4.08702 -114.957 -61.9263 10.7677 0.645817 7.59908 -89.1141 11.6615 1.69993 1.58802 -0.00919559 1.76819 1.51166 -22.5412 1.14418 2.0254 -2.52853 1.14419 2.0254 83.4333 -49.2431 -111.044 27.9952 -11.5137 9.65757 -12.5038 -11.4222 -55.0616 -11.3763 -1.03245 5.36514 -99.5821 -44.308 62.4315 -37.3186 6.99221 14.9342 3.27932 11.5355 -23.917 7.21381 0.709709 5.15797 8.22779 1.4075 3.39647 -0.299059 0.603732 -2.23527 
-284.575 86.6147 -278.911 87.8882 -49.1256 84.2858 -171.445 29.5474 83.5711 -50.3907 10.808 -5.74158 75.5607 11.9774 13.3591 34.1799 6.11253 -11.9714 -178.411 40.7854 89.1052 -80.2684 -19.1324 -4.86145 107.683 -20.4787 -3.74106 -114.436 -63.9966 11.8552 0.406471 7.61809 -89.2083 11.6277 1.17962 1.45563 -0.0434244 1.24254 1.4023 -22.5738 0.687675 1.74278 -2.56119 0.687704 1.74279 82.288 -50.6305 -112.266 28.4084 -11.7092 12.6352 -11.3807 -11.2544 -52.462 -10.6105 -0.847364 3.96834 -100.05 -43.9028 61.5461 -36.0297 7.81656 12.776 3.37838 10.3398 -26.5491 8.9934 0.774099 4.29992 7.41849 1.76161 2.9198 0.226445 1.07923 -1.68609 
-280.824 90.8407 -276.108 88.3908 -47.8226 86.2102 -172.957 20.2098 84.114 -38.0677 12.0795 -3.35132 70.2168 9.65274 13.8996 37.0675 8.73712 -11.3157 179.729 32.3585 90.1026 -72.0038 -18.4345 -4.14832 105.468 -20.2207 -4.98998 -117.077 -48.057 5.28219 0.141867 7.62793 -89.4802 11.6147 0.525801 0.981413 -0.0564752 0.568498 0.957307 -22.5889 0.206556 1.09405 -2.57621 0.206547 1.09404 82.7075 -50.9596 -111.528 29.3507 -11.6082 15.2757 -11.2234 -12.9423 -49.4975 -9.78555 -0.714659 2.821 -101.642 -43.8971 59.1118 -33.763 8.44229 11.5745 3.79074 8.36793 -31.6517 11.8951 0.889191 3.44611 7.1884 1.8737 2.47518 -0.0723399 1.32555 -0.397335 
-277.08 93.7863 -272.71 88.382 -45.9372 87.2165 -173.732 11.3315 84.9013 -26.241 13.3377 -2.06997 66.0512 7.76464 12.5661 38.1287 9.80273 -9.56976 178.183 26.5827 90.6686 -61.564 -11.2744 -2.60981 93.0733 -15.1387 -4.99948 -95.325 -12.7315 -3.30744 -0.191509 7.61554 -89.6676 11.6425 -0.225116 0.685808 -0.0286045 -0.194714 0.695038 -22.5628 -0.420805 0.586454 -2.55011 -0.420833 0.586448 83.5338 -51.0419 -110.276 30.7178 -12.0992 17.2421 -11.9748 -15.4546 -47.7131 -8.51018 -0.760118 4.93854 -100.849 -43.4126 60.1112 -31.8742 9.44979 8.72178 5.70311 8.94688 -37.784 14.4326 1.35041 5.39816 6.60203 2.25458 2.17628 -0.018148 1.76805 -0.50315 
-273.398 95.0103 -269.209 87.5711 -44.2742 86.657 -174.114 4.80544 85.1224 -17.9027 16.2442 -1.89413 62.4448 6.37402 13.0561 40.1628 12.0136 -6.19826 177.855 26.4918 90.1669 -50.3959 1.61879 -1.29332 67.108 -4.32618 -2.29814 8.4387 3.79812 -5.79209 -0.507607 7.58309 -89.6575 11.7103 -0.848777 0.771741 0.0394043 -0.814014 0.808349 -22.4971 -1.0415 0.480954 -2.48447 -1.04149 0.480958 82.9209 -52.2625 -110.766 30.3306 -10.8888 19.5229 -10.2097 -15.2439 -46.0211 1.25443 -0.114461 4.68092 -100.009 -41.9366 60.7787 -29.5722 9.56239 6.10144 6.86683 7.49401 -43.128 15.1708 1.15069 3.61762 6.92748 2.08088 0.24795 -0.589651 2.002 0.521915 
-269.94 94.7302 -265.67 87.1058 -43.055 86.0449 -173.867 1.10391 85.4878 -15.7728 17.4875 -1.94508 62.2296 6.25973 13.0713 42.4845 14.5019 -4.74367 178.316 27.9821 89.2118 -37.427 5.33866 -0.366781 59.3475 -1.32972 -0.790717 47.4281 1.02032 0.963775 -0.741262 7.5587 -89.6519 11.7613 -1.31068 0.832456 0.0907446 -1.27278 0.889328 -22.4491 -1.50025 0.4 -2.43641 -1.50027 0.399987 82.3996 -53.5248 -111.095 29.8928 -11.0491 21.7457 -9.04803 -14.8058 -43.3913 0.536791 -0.146998 3.7955 -99.844 -41.1382 60.6914 -26.5721 9.3805 3.86416 8.29258 6.3392 -49.1972 16.7266 1.33904 4.15412 6.59619 2.03332 -0.57483 0.00263725 2.12881 0.807526 
-266.414 93.971 -261.963 87.5648 -41.5646 86.5888 -173.089 -2.18725 86.4471 -16.5511 17.6872 -1.80657 64.1261 8.24692 13.2595 43.5182 15.4036 -5.6276 178.975 26.8102 88.4673 -20.5823 5.92595 0.316923 53.4746 0.415316 0.516589 47.5325 1.43195 2.72924 -0.950852 7.63375 -89.7198 11.6129 -1.7601 0.740831 -0.0570908 -1.7258 0.817588 -22.6016 -1.90137 0.17743 -2.58897 -1.90138 0.177413 82.377 -54.4988 -110.801 29.1899 -11.0866 23.2108 -9.45265 -16.2625 -41.6257 0.222357 -0.19534 2.96181 -100.113 -40.5429 60.0017 -23.5192 9.04519 1.55166 12.1883 7.33851 -55.8992 17.9397 2.40124 9.47395 6.56994 1.53797 -1.08255 0.133923 1.75691 1.25285 
-262.739 92.808 -258.078 87.6247 -39.6973 86.0047 -172.582 -5.03475 87.1242 -17.3223 22.363 -2.03872 62.8795 8.71278 16.3176 48.3937 20.3828 -4.88627 179.79 25.9547 86.8722 -6.25131 4.93756 -0.0423716 46.9691 2.48163 2.34854 47.8409 1.4571 2.73269 -1.24612 7.6934 -89.6948 11.4974 -2.33645 0.846758 -0.171765 -2.29695 0.948815 -22.7236 -2.48286 0.105007 -2.71099 -2.48288 0.104995 82.3805 -55.5652 -110.445 27.7016 -10.4228 23.7305 -9.74812 -18.0733 -39.5025 0.397918 -0.201579 3.2498 -99.6005 -40.0671 60.6074 -20.6604 6.36372 -1.10455 9.40243 3.12723 -58.5236 15.8596 1.19243 3.62957 7.10919 1.22156 -1.82872 0.463965 1.62356 1.84316 
-259.087 91.8397 -253.721 88.5498 -37.8964 85.4476 -171.958 -8.56482 88.2466 -17.9489 26.1313 -1.99067 61.7987 7.31611 14.434 51.6383 24.3149 -2.44326 179.472 27.4848 85.485 -5.25738 3.72196 0.147244 46.3127 3.46479 3.21763 51.0524 1.19397 -1.66153 -1.54042 7.75447 -89.6234 11.3804 -2.88939 1.04032 -0.287904 -2.8408 1.16655 -22.8487 -3.06836 0.123063 -2.83602 -3.06837 0.123058 82.8969 -55.9941 -109.581 26.887 -9.03584 24.6083 -10.8375 -18.7205 -38.7917 1.14141 -0.126357 5.00383 -99.2414 -39.8463 61.0861 -19.5097 4.7398 -3.02184 11.2484 3.61344 -61.1548 16.9916 1.47391 4.76973 7.32991 1.10157 -1.87853 -0.231791 1.50644 1.76442 
-254.839 91.0858 -249.251 89.5097 -37.8387 87.3313 -171.804 -10.7274 90.5689 -21.723 27.1464 -0.263729 59.5279 3.91111 11.0356 57.1199 30.229 -1.5949 177.565 26.5967 87.2076 -8.40569 5.64135 2.67773 46.5705 2.73908 2.57333 42.5839 1.01842 5.77896 -1.619 7.7867 -89.7892 11.3139 -3.12355 0.731586 -0.353539 -3.08831 0.868466 -22.9189 -3.19887 -0.241962 -2.90621 -3.19888 -0.241966 83.6669 -55.845 -108.544 26.6453 -8.48403 24.5869 -10.7796 -20.083 -36.3428 -0.843095 -0.267443 3.68367 -98.7902 -39.9093 61.8394 -20.096 2.53579 -2.89514 11.5379 3.11923 -62.7106 18.1179 1.70463 5.50725 7.13511 1.15808 -1.91183 -0.577278 1.56753 2.05245 
-250.19 90.4186 -244.376 90.7345 -39.5693 90.624 -171.902 -12.1616 93.2619 -26.5783 26.4428 1.34961 53.9957 -2.94534 4.0267 57.1321 35.0806 9.45926 177.095 29.5849 91.1227 -24.794 5.01722 3.69104 57.0346 0.580494 0.5601 34.9798 0.322245 7.04586 -1.4691 7.85161 -90.111 11.1748 -2.9755 0.0702756 -0.492789 -2.96951 0.201275 -23.0538 -2.85895 -0.827989 -3.04118 -2.85896 -0.827985 83.2522 -55.9031 -109.111 25.51 -7.24987 24.6224 -8.92961 -18.145 -34.5497 -1.52033 -0.293386 6.98927 -99.3744 -41.0318 61.3888 -21.0906 0.210191 -0.795627 10.9015 1.94284 -64.0559 16.481 1.54066 5.43141 7.5038 1.50862 -1.0488 -1.31642 1.72571 1.95995 
-245.203 90.1972 -240.04 90.5653 -40.5798 93.7462 -171.821 -9.51953 96.3613 -33.627 22.7317 2.07821 43.2827 -11.4595 -2.63129 50.2559 29.8103 18.1781 177.437 30.4336 94.7639 -34.5718 4.07427 3.49376 62.5246 -1.14574 -0.586215 34.5891 0.248367 7.77562 -1.31665 7.82709 -90.4929 11.2119 -2.84955 -0.700837 -0.456087 -2.87763 -0.574652 -23.01 -2.50712 -1.52529 -2.99738 -2.50713 -1.52529 82.1722 -55.6935 -110.697 25.4635 -7.21628 23.2905 -9.32161 -20.0274 -32.6478 -4.28678 -0.477981 3.39588 -100.09 -41.8291 60.6046 -22.4248 -0.629377 1.29085 8.48897 0.769543 -62.2517 22.3188 2.1938 6.06066 7.87716 1.77759 -0.373495 -1.8098 1.83766 1.47703 
-241.028 90.0115 -235.636 92.9896 -41.3218 95.6985 -172.721 -5.02673 96.8037 -45.5127 20.5178 2.04355 37.0243 -15.8702 -5.09731 31.3196 2.16363 10.7918 177.291 27.1721 96.04 -40.1454 5.21973 3.51682 69.0794 -2.84705 -1.48354 27.2537 -0.868285 10.2092 -1.10803 7.93382 -90.4676 11 -2.42233 -0.698694 -0.668764 -2.45074 -0.591355 -23.217 -2.10034 -1.39465 -3.20432 -2.10034 -1.39466 82.2857 -54.0864 -111.068 28.2217 -6.97134 21.9005 -8.99875 -19.3769 -32.4051 -6.18538 -0.551228 4.84275 -100.621 -42.1868 59.9309 -23.9015 0.558811 2.75754 5.89019 -0.477315 -58.3023 20.3719 1.71473 4.46225 6.99684 1.45511 -0.0457996 -1.94827 1.44678 0.975503 
